<svg viewBox="-13 -13 26 26" xmlns="http://www.w3.org/2000/svg">
<g id="layer_canvas" fill="#fff">
<circle id="canvas_circle" r="13"/>
<rect id="canvas_rect" x="-13" y="-13" width="26" height="26" style="display:none"/>
</g>
<g id="layer_codigo">
<path id="C" d="m0-12a12 12 0 00-12 12 12 12 0 0012 12v-1a11 11 0 01-11-11 11 11 0 0111-11z"/>
<path id="O" d="m0-10a10 10 0 00-10 10 10 10 0 0010 10 10 10 0 0010-10 10 10 0 00-10-10zm0 1a9 9 0 019 9 9 9 0 01-9 9 9 9 0 01-9-9 9 9 0 019-9z"/>
<path id="D" d="M 1.125,-7.9121094 V 7.910645 A 8,8 0 0 0 8,0 8,8 0 0 0 1.125,-7.9121094 Z m 1,1.2600098 A 7,7 0 0 1 7,0 7,7 0 0 1 2.125,6.6579587 Z"/>
<rect id="I" x="-.125" y="-8" width=".25" height="16"/>
<path id="G" d="M -1.125,-7.9106445 A 8,8 0 0 0 -8,0 8,8 0 0 0 -1.125,7.91211 V 0 H -4 v 1 h 1.875 V 6.6521 A 7,7 0 0 1 -7,0 7,7 0 0 1 -1.125,-6.9060059 Z"/>
<path id="o" d="m0-6a6 6 0 00-6 6 6 6 0 006 6 6 6 0 006-6 6 6 0 00-6-6zm0 1a5 5 0 015 5 5 5 0 01-5 5 5 5 0 01-5-5 5 5 0 015-5z"/>
</g>
</svg>