<svg viewBox="-13 -13 26 26" xmlns="http://www.w3.org/2000/svg">
<path id="C" d="m0-12a12 12 0 00-12 12 12 12 0 0012 12v-1a11 11 0 01-11-11 11 11 0 0111-11"/>
<path id="O" d="m0-10a10 10 0 00-10 10 10 10 0 0010 10 10 10 0 0010-10 10 10 0 00-10-10m0 1a9 9 0 019 9 9 9 0 01-9 9 9 9 0 01-9-9 9 9 0 019-9"/>
<path id="D" d="M1.125,-7.91V7.91A8,8 0 008,0 8,8 0 0 0 1.125,-7.91m1,1.26 A7,7 0 0 1 7,0 7,7 0 0 1 2.125,6.66"/>
<rect id="I" x="-.125" y="-8" width=".25" height="16"/>
<path id="G" d="M-1.125,-7.91A8,8 0 0 0-8,0 8,8 0 0 0-1.125,7.91V0H-4v1h1.875V6.65A7,7 0 0 1-7,0 7,7 0 0 1-1.125,-6.906"/>
<path id="o" d="m0-6a6 6 0 00-6 6 6 6 0 006 6 6 6 0 006-6 6 6 0 00-6-6m0 1a5 5 0 015 5 5 5 0 01-5 5 5 5 0 01-5-5 5 5 0 015-5"/>
</svg>